<svg xmlns="http://www.w3.org/2000/svg" xmlns:xlink="http://www.w3.org/1999/xlink" width="500" zoomAndPan="magnify" viewBox="0 0 375 374.999991" height="500" preserveAspectRatio="xMidYMid meet" version="1.0"><defs><clipPath id="12fa9b21e0"><path d="M 204 16.023438 L 357 16.023438 L 357 358.773438 L 204 358.773438 Z M 204 16.023438 " clip-rule="nonzero"/></clipPath><clipPath id="e4a95c656b"><path d="M 18 16.023438 L 171 16.023438 L 171 358.773438 L 18 358.773438 Z M 18 16.023438 " clip-rule="nonzero"/></clipPath><clipPath id="dfb5a1b6bd"><path d="M 204 16.023438 L 357 16.023438 L 357 358.773438 L 204 358.773438 Z M 204 16.023438 " clip-rule="nonzero"/></clipPath><clipPath id="c261376be2"><path d="M 18 16.023438 L 171 16.023438 L 171 358.773438 L 18 358.773438 Z M 18 16.023438 " clip-rule="nonzero"/></clipPath></defs><path fill="#ea8342" d="M 374.367188 35.03125 L 0.632812 35.03125 L 0.628906 28.402344 L 374.359375 28.402344 L 374.359375 35.03125 " fill-opacity="1" fill-rule="nonzero"/><path fill="#ea8342" d="M 45.023438 316.996094 C 34.121094 316.996094 25.296875 307.863281 25.296875 296.621094 L 25.296875 66.042969 C 25.296875 54.796875 34.121094 45.679688 45.023438 45.679688 L 324.203125 45.679688 C 335.089844 45.679688 343.929688 54.796875 343.929688 66.042969 L 343.929688 296.621094 C 343.929688 307.863281 335.089844 316.996094 324.203125 316.996094 L 45.023438 316.996094 " fill-opacity="1" fill-rule="nonzero"/><path fill="#a6d1ee" d="M 323.308594 80.960938 L 323.308594 281.699219 C 323.308594 291.492188 315.625 299.4375 306.136719 299.4375 L 63.070312 299.4375 C 57.199219 299.4375 52.019531 296.386719 48.933594 291.738281 C 47.039062 288.871094 45.914062 285.425781 45.914062 281.699219 L 45.914062 80.960938 C 45.914062 71.167969 53.601562 63.222656 63.070312 63.222656 L 306.136719 63.222656 C 306.945312 63.222656 307.738281 63.273438 308.515625 63.386719 C 312.457031 63.949219 315.984375 65.910156 318.59375 68.761719 C 321.511719 71.945312 323.308594 76.246094 323.308594 80.960938 " fill-opacity="1" fill-rule="nonzero"/><path fill="#ffffff" d="M 308.515625 63.386719 L 68.480469 299.4375 L 63.070312 299.4375 C 57.199219 299.4375 52.019531 296.386719 48.933594 291.738281 L 282.203125 63.222656 L 306.136719 63.222656 C 306.945312 63.222656 307.738281 63.273438 308.515625 63.386719 " fill-opacity="1" fill-rule="nonzero"/><path fill="#ffffff" d="M 323.308594 80.960938 L 323.308594 81.128906 L 101.359375 299.4375 L 84.054688 299.4375 L 318.59375 68.761719 C 321.511719 71.945312 323.308594 76.246094 323.308594 80.960938 " fill-opacity="1" fill-rule="nonzero"/><path fill="#ea8342" d="M 179.878906 312.164062 C 175.753906 312.164062 172.390625 309.015625 172.390625 305.109375 L 172.390625 52.753906 C 172.390625 48.847656 175.753906 45.679688 179.878906 45.679688 L 189.332031 45.679688 C 193.472656 45.679688 196.835938 48.847656 196.835938 52.753906 L 196.835938 305.109375 C 196.835938 309.015625 193.472656 312.164062 189.332031 312.164062 L 179.878906 312.164062 " fill-opacity="1" fill-rule="nonzero"/><path fill="#ea8342" d="M 39.054688 174.207031 C 39.054688 170.070312 42.238281 166.707031 46.148438 166.707031 L 329.496094 166.707031 C 333.40625 166.707031 336.574219 170.070312 336.574219 174.207031 L 336.574219 183.640625 C 336.574219 187.792969 333.40625 191.140625 329.496094 191.140625 L 46.148438 191.140625 C 42.238281 191.140625 39.054688 187.792969 39.054688 183.640625 L 39.054688 174.207031 " fill-opacity="1" fill-rule="nonzero"/><g clip-path="url(#12fa9b21e0)"><path fill="#e0464c" d="M 335.632812 16.089844 L 205.628906 16.089844 C 204.359375 26.113281 204.210938 44.527344 206.964844 57.832031 C 216.582031 104.570312 241.738281 187.480469 307.390625 210.988281 L 307.886719 215.09375 C 286.671875 254.050781 284.398438 305.71875 286.671875 332.148438 C 287.992188 347.316406 290.664062 358.871094 311.613281 358.871094 L 356.683594 358.871094 L 356.683594 37.816406 C 356.683594 25.800781 347.261719 16.089844 335.632812 16.089844 " fill-opacity="1" fill-rule="nonzero"/></g><path stroke-linecap="round" transform="matrix(0.164959, 0, 0, -0.164863, -163.202284, 537.978709)" fill="none" stroke-linejoin="round" d="M 2999.608747 1987.199184 C 2413.406266 2402.103582 2455.509599 3043.806272 2455.509599 3043.806272 " stroke="#bf3b40" stroke-width="21.764999" stroke-opacity="1" stroke-miterlimit="10"/><path stroke-linecap="round" transform="matrix(0.164959, 0, 0, -0.164863, -163.202284, 537.978709)" fill="none" stroke-linejoin="round" d="M 2750.706534 3043.806272 C 2750.706534 3043.806272 2697.805046 2517.493018 2999.608747 1987.199184 " stroke="#bf3b40" stroke-width="21.764999" stroke-opacity="1" stroke-miterlimit="10"/><path stroke-linecap="round" transform="matrix(0.164959, 0, 0, -0.164863, -163.202284, 537.978709)" fill="none" stroke-linejoin="round" d="M 2999.608747 1987.199184 C 2999.608747 1987.199184 2867.307666 1609.304704 2939.792651 1187.789699 " stroke="#bf3b40" stroke-width="21.764999" stroke-opacity="1" stroke-miterlimit="10"/><g clip-path="url(#e4a95c656b)"><path fill="#e0464c" d="M 39.367188 16.089844 L 169.371094 16.089844 C 170.640625 26.113281 170.789062 44.527344 168.035156 57.832031 C 158.417969 104.570312 133.261719 187.480469 67.609375 210.988281 L 67.113281 215.09375 C 88.328125 254.050781 90.601562 305.71875 88.328125 332.148438 C 87.023438 347.316406 84.335938 358.871094 63.386719 358.871094 L 18.316406 358.871094 L 18.316406 37.816406 C 18.316406 25.800781 27.738281 16.089844 39.367188 16.089844 " fill-opacity="1" fill-rule="nonzero"/></g><path stroke-linecap="round" transform="matrix(0.164959, 0, 0, -0.164863, -163.202284, 537.978709)" fill="none" stroke-linejoin="round" d="M 1252.391462 1987.199184 C 1838.593944 2402.103582 1796.49061 3043.806272 1796.49061 3043.806272 " stroke="#bf3b40" stroke-width="21.764999" stroke-opacity="1" stroke-miterlimit="10"/><path stroke-linecap="round" transform="matrix(0.164959, 0, 0, -0.164863, -163.202284, 537.978709)" fill="none" stroke-linejoin="round" d="M 1501.293675 3043.806272 C 1501.293675 3043.806272 1554.195163 2517.493018 1252.391462 1987.199184 " stroke="#bf3b40" stroke-width="21.764999" stroke-opacity="1" stroke-miterlimit="10"/><path stroke-linecap="round" transform="matrix(0.164959, 0, 0, -0.164863, -163.202284, 537.978709)" fill="none" stroke-linejoin="round" d="M 1252.391462 1987.199184 C 1252.391462 1987.199184 1384.692543 1609.304704 1312.207558 1187.789699 " stroke="#bf3b40" stroke-width="21.764999" stroke-opacity="1" stroke-miterlimit="10"/><path fill="#ea8342" d="M 374.367188 35.03125 L 0.632812 35.03125 L 0.628906 28.402344 L 374.359375 28.402344 L 374.359375 35.03125 " fill-opacity="1" fill-rule="nonzero"/><path fill="#ea8342" d="M 45.023438 316.996094 C 34.121094 316.996094 25.296875 307.863281 25.296875 296.621094 L 25.296875 66.042969 C 25.296875 54.796875 34.121094 45.679688 45.023438 45.679688 L 324.203125 45.679688 C 335.089844 45.679688 343.929688 54.796875 343.929688 66.042969 L 343.929688 296.621094 C 343.929688 307.863281 335.089844 316.996094 324.203125 316.996094 L 45.023438 316.996094 " fill-opacity="1" fill-rule="nonzero"/><path fill="#a6d1ee" d="M 323.308594 80.960938 L 323.308594 281.699219 C 323.308594 291.492188 315.625 299.4375 306.136719 299.4375 L 63.070312 299.4375 C 57.199219 299.4375 52.019531 296.386719 48.933594 291.738281 C 47.039062 288.871094 45.914062 285.425781 45.914062 281.699219 L 45.914062 80.960938 C 45.914062 71.167969 53.601562 63.222656 63.070312 63.222656 L 306.136719 63.222656 C 306.945312 63.222656 307.738281 63.273438 308.515625 63.386719 C 312.457031 63.949219 315.984375 65.910156 318.59375 68.761719 C 321.511719 71.945312 323.308594 76.246094 323.308594 80.960938 " fill-opacity="1" fill-rule="nonzero"/><path fill="#ffffff" d="M 308.515625 63.386719 L 68.480469 299.4375 L 63.070312 299.4375 C 57.199219 299.4375 52.019531 296.386719 48.933594 291.738281 L 282.203125 63.222656 L 306.136719 63.222656 C 306.945312 63.222656 307.738281 63.273438 308.515625 63.386719 " fill-opacity="1" fill-rule="nonzero"/><path fill="#ffffff" d="M 323.308594 80.960938 L 323.308594 81.128906 L 101.359375 299.4375 L 84.054688 299.4375 L 318.59375 68.761719 C 321.511719 71.945312 323.308594 76.246094 323.308594 80.960938 " fill-opacity="1" fill-rule="nonzero"/><path fill="#ea8342" d="M 179.878906 312.164062 C 175.753906 312.164062 172.390625 309.015625 172.390625 305.109375 L 172.390625 52.753906 C 172.390625 48.847656 175.753906 45.679688 179.878906 45.679688 L 189.332031 45.679688 C 193.472656 45.679688 196.835938 48.847656 196.835938 52.753906 L 196.835938 305.109375 C 196.835938 309.015625 193.472656 312.164062 189.332031 312.164062 L 179.878906 312.164062 " fill-opacity="1" fill-rule="nonzero"/><path fill="#ea8342" d="M 39.054688 174.207031 C 39.054688 170.070312 42.238281 166.707031 46.148438 166.707031 L 329.496094 166.707031 C 333.40625 166.707031 336.574219 170.070312 336.574219 174.207031 L 336.574219 183.640625 C 336.574219 187.792969 333.40625 191.140625 329.496094 191.140625 L 46.148438 191.140625 C 42.238281 191.140625 39.054688 187.792969 39.054688 183.640625 L 39.054688 174.207031 " fill-opacity="1" fill-rule="nonzero"/><g clip-path="url(#dfb5a1b6bd)"><path fill="#e0464c" d="M 335.632812 16.089844 L 205.628906 16.089844 C 204.359375 26.113281 204.210938 44.527344 206.964844 57.832031 C 216.582031 104.570312 241.738281 187.480469 307.390625 210.988281 L 307.886719 215.09375 C 286.671875 254.050781 284.398438 305.71875 286.671875 332.148438 C 287.992188 347.316406 290.664062 358.871094 311.613281 358.871094 L 356.683594 358.871094 L 356.683594 37.816406 C 356.683594 25.800781 347.261719 16.089844 335.632812 16.089844 " fill-opacity="1" fill-rule="nonzero"/></g><path stroke-linecap="round" transform="matrix(0.164959, 0, 0, -0.164863, -163.202284, 537.978709)" fill="none" stroke-linejoin="round" d="M 2999.608747 1987.199184 C 2413.406266 2402.103582 2455.509599 3043.806272 2455.509599 3043.806272 " stroke="#bf3b40" stroke-width="21.764999" stroke-opacity="1" stroke-miterlimit="10"/><path stroke-linecap="round" transform="matrix(0.164959, 0, 0, -0.164863, -163.202284, 537.978709)" fill="none" stroke-linejoin="round" d="M 2750.706534 3043.806272 C 2750.706534 3043.806272 2697.805046 2517.493018 2999.608747 1987.199184 " stroke="#bf3b40" stroke-width="21.764999" stroke-opacity="1" stroke-miterlimit="10"/><path stroke-linecap="round" transform="matrix(0.164959, 0, 0, -0.164863, -163.202284, 537.978709)" fill="none" stroke-linejoin="round" d="M 2999.608747 1987.199184 C 2999.608747 1987.199184 2867.307666 1609.304704 2939.792651 1187.789699 " stroke="#bf3b40" stroke-width="21.764999" stroke-opacity="1" stroke-miterlimit="10"/><g clip-path="url(#c261376be2)"><path fill="#e0464c" d="M 39.367188 16.089844 L 169.371094 16.089844 C 170.640625 26.113281 170.789062 44.527344 168.035156 57.832031 C 158.417969 104.570312 133.261719 187.480469 67.609375 210.988281 L 67.113281 215.09375 C 88.328125 254.050781 90.601562 305.71875 88.328125 332.148438 C 87.023438 347.316406 84.335938 358.871094 63.386719 358.871094 L 18.316406 358.871094 L 18.316406 37.816406 C 18.316406 25.800781 27.738281 16.089844 39.367188 16.089844 " fill-opacity="1" fill-rule="nonzero"/></g><path stroke-linecap="round" transform="matrix(0.164959, 0, 0, -0.164863, -163.202284, 537.978709)" fill="none" stroke-linejoin="round" d="M 1252.391462 1987.199184 C 1838.593944 2402.103582 1796.49061 3043.806272 1796.49061 3043.806272 " stroke="#bf3b40" stroke-width="21.764999" stroke-opacity="1" stroke-miterlimit="10"/><path stroke-linecap="round" transform="matrix(0.164959, 0, 0, -0.164863, -163.202284, 537.978709)" fill="none" stroke-linejoin="round" d="M 1501.293675 3043.806272 C 1501.293675 3043.806272 1554.195163 2517.493018 1252.391462 1987.199184 " stroke="#bf3b40" stroke-width="21.764999" stroke-opacity="1" stroke-miterlimit="10"/><path stroke-linecap="round" transform="matrix(0.164959, 0, 0, -0.164863, -163.202284, 537.978709)" fill="none" stroke-linejoin="round" d="M 1252.391462 1987.199184 C 1252.391462 1987.199184 1384.692543 1609.304704 1312.207558 1187.789699 " stroke="#bf3b40" stroke-width="21.764999" stroke-opacity="1" stroke-miterlimit="10"/></svg>